<?xml version="1.0" encoding="UTF-8" standalone="no"?>
<!-- Created with Inkscape (http://www.inkscape.org/) -->

<svg
   width="32"
   height="32"
   viewBox="0 0 32 32"
   version="1.1"
   id="svg1"
   inkscape:version="1.4.2 (ebf0e940d0, 2025-05-08)"
   sodipodi:docname="moon.svg"
   xmlns:inkscape="http://www.inkscape.org/namespaces/inkscape"
   xmlns:sodipodi="http://sodipodi.sourceforge.net/DTD/sodipodi-0.dtd"
   xmlns="http://www.w3.org/2000/svg"
   xmlns:svg="http://www.w3.org/2000/svg">
  <sodipodi:namedview
     id="namedview1"
     pagecolor="#505050"
     bordercolor="#eeeeee"
     borderopacity="1"
     inkscape:showpageshadow="0"
     inkscape:pageopacity="0"
     inkscape:pagecheckerboard="0"
     inkscape:deskcolor="#505050"
     inkscape:document-units="px"
     inkscape:zoom="12.484375"
     inkscape:cx="22.788486"
     inkscape:cy="31.599499"
     inkscape:window-width="1920"
     inkscape:window-height="1008"
     inkscape:window-x="0"
     inkscape:window-y="0"
     inkscape:window-maximized="1"
     inkscape:current-layer="layer1" />
  <defs
     id="defs1">
    <filter
       id="mask-powermask-path-effect3_inverse"
       inkscape:label="filtermask-powermask-path-effect3"
       style="color-interpolation-filters:sRGB"
       height="100"
       width="100"
       x="-50"
       y="-50">
      <feColorMatrix
         id="mask-powermask-path-effect3_primitive1"
         values="1"
         type="saturate"
         result="fbSourceGraphic" />
      <feColorMatrix
         id="mask-powermask-path-effect3_primitive2"
         values="-1 0 0 0 1 0 -1 0 0 1 0 0 -1 0 1 0 0 0 1 0 "
         in="fbSourceGraphic" />
    </filter>
  </defs>
  <g
     inkscape:label="Layer 1"
     inkscape:groupmode="layer"
     id="layer1">
    <path
       id="path1"
       style="display:inline;fill:#000000;fill-opacity:1;stroke-width:14.4518;stroke-linecap:square"
       d="M 23.18147,2.284574 A 16.06558,16.06558 0 0 0 16.475767,2.0588277e-7 14.497918,14.497918 0 0 1 16.811343,0.17812964 14.497918,14.497918 0 0 1 21.49076,20.138653 14.497918,14.497918 0 0 1 1.5302354,24.818071 14.497918,14.497918 0 0 1 1.2215224,24.596628 16.06558,16.06558 0 0 0 6.248352,29.588292 16.06558,16.06558 0 0 0 28.36677,24.402992 16.06558,16.06558 0 0 0 23.18147,2.284574 Z" />
  </g>
</svg>
