<?xml version="1.0" encoding="UTF-8" standalone="no"?>
<!-- Created with Inkscape (http://www.inkscape.org/) -->

<svg
   version="1.1"
   id="svg1"
   width="1200"
   height="873"
   viewBox="0 0 1200 873"
   sodipodi:docname="standard_norges_flagg.svg"
   inkscape:version="1.4.2 (ebf0e940d0, 2025-05-08)"
   xmlns:inkscape="http://www.inkscape.org/namespaces/inkscape"
   xmlns:sodipodi="http://sodipodi.sourceforge.net/DTD/sodipodi-0.dtd"
   xmlns="http://www.w3.org/2000/svg"
   xmlns:svg="http://www.w3.org/2000/svg">
  <defs
     id="defs1" />
  <sodipodi:namedview
     id="namedview1"
     pagecolor="#505050"
     bordercolor="#eeeeee"
     borderopacity="1"
     inkscape:showpageshadow="0"
     inkscape:pageopacity="0"
     inkscape:pagecheckerboard="0"
     inkscape:deskcolor="#505050"
     inkscape:zoom="0.48281787"
     inkscape:cx="-16.569395"
     inkscape:cy="119.09253"
     inkscape:window-width="1920"
     inkscape:window-height="1008"
     inkscape:window-x="0"
     inkscape:window-y="0"
     inkscape:window-maximized="1"
     inkscape:current-layer="g1" />
  <g
     inkscape:groupmode="layer"
     inkscape:label="Image"
     id="g1">
    <path
       style="display:inline;fill:#ce0000;fill-opacity:1;stroke:#ce0000;stroke-width:1.46685;stroke-linecap:square;stroke-linejoin:miter;stroke-opacity:1"
       d="M 0.73227072,163.29637 V 0 H 163.29637 L 328.28114,1.36199 V 164.65836 330.67872 L 163.29637,329.31673 H 0.73227072 Z"
       id="path3"
       sodipodi:nodetypes="ccccccccc" />
    <path
       style="display:inline;fill:#ce0000;fill-opacity:1;stroke:#ce0000;stroke-width:1.46685;stroke-linecap:square;stroke-linejoin:miter;stroke-opacity:1"
       d="M 543.68327,163.29637 V 0 L 872.8667,0 h 325.8605 V 163.29637 329.31673 H 872.8667 l -329.18343,0 z"
       id="path4"
       sodipodi:nodetypes="ccccccccc" />
    <path
       style="display:inline;fill:#ce0000;fill-opacity:1;stroke:#ce0000;stroke-width:1.46685;stroke-linecap:square;stroke-linejoin:miter;stroke-opacity:1"
       d="M 543.68327,708.34164 V 545.04527 l 329.18343,1.22869 h 325.8605 V 709.57033 872.8667 H 872.8667 l -329.18343,-1.22869 z"
       id="path5"
       sodipodi:nodetypes="ccccccccc" />
    <path
       style="display:inline;fill:#ce0000;fill-opacity:1;stroke:#ce0000;stroke-width:1.46685;stroke-linecap:square;stroke-linejoin:miter;stroke-opacity:1"
       d="M 0.73227072,709.57033 V 546.27396 H 163.29637 l 164.98477,-1.22869 V 708.34164 871.63801 L 163.29637,872.8667 H 0.73227072 Z"
       id="path6"
       sodipodi:nodetypes="ccccccccc" />
    <path
       style="display:inline;fill:#001f64;fill-opacity:1;stroke:#001f64;stroke-width:4.576;stroke-linecap:square;stroke-linejoin:miter;stroke-opacity:1;stroke-dasharray:none"
       d="M 382.13167,681.41637 V 490.86833 H 191.58363 1.0355872 V 437.01779 383.16726 H 191.58363 382.13167 V 191.58363 0 h 53.85054 53.85053 v 191.58363 191.58363 h 354.17082 354.17084 v 53.85053 53.85054 H 844.00356 489.83274 v 190.54804 190.54804 h -53.85053 -53.85054 z"
       id="path7" />
    <path
       style="fill:#ffffff;fill-opacity:1;stroke:#ffffff;stroke-width:2.07444;stroke-linecap:square;stroke-linejoin:miter;stroke-opacity:1"
       d="M 1.0355872,354.17082 V 329.31673 H 164.65836 328.28114 V 164.65836 0 h 25.88968 25.88968 V 189.51246 379.02491 H 190.54804 1.0355872 Z"
       id="path8" />
    <path
       style="fill:#ffffff;fill-opacity:1;stroke:#ffffff;stroke-width:2.07444;stroke-linecap:square;stroke-linejoin:miter;stroke-opacity:1"
       d="M 491.90391,189.51246 V 0 h 25.88968 25.88968 v 164.65836 164.65837 h 327.24556 327.24557 v 24.85409 l 0,28.99644 H 845.03915 491.90391 Z"
       id="path9"
       sodipodi:nodetypes="ccccccccccccc" />
    <path
       style="fill:#ffffff;fill-opacity:1;stroke:#ffffff;stroke-width:2.07444;stroke-linecap:square;stroke-linejoin:miter;stroke-opacity:1"
       d="M 491.90391,682.45196 V 492.9395 h 353.13524 353.13525 v 25.88968 25.88968 H 870.92883 543.68327 v 163.62278 163.62277 h -25.88968 -25.88968 z"
       id="path10" />
    <path
       style="fill:#ffffff;fill-opacity:1;stroke:#ffffff;stroke-width:2.07444;stroke-linecap:square;stroke-linejoin:miter;stroke-opacity:1"
       d="M 328.28114,708.34164 V 544.71886 H 164.65836 1.0355872 V 518.82918 492.9395 H 190.54804 380.0605 v 189.51246 189.51245 h -25.88968 -25.88968 z"
       id="path11" />
  </g>
</svg>
