<?xml version="1.0" encoding="UTF-8" standalone="no"?>
<!-- Created with Inkscape (http://www.inkscape.org/) -->

<svg
   version="1.1"
   id="svg1"
   width="1200"
   height="600"
   viewBox="0 0 1200 600"
   sodipodi:docname="standard_storbritannia-flagg.svg"
   inkscape:version="1.4.2 (ebf0e940d0, 2025-05-08)"
   xmlns:inkscape="http://www.inkscape.org/namespaces/inkscape"
   xmlns:sodipodi="http://sodipodi.sourceforge.net/DTD/sodipodi-0.dtd"
   xmlns="http://www.w3.org/2000/svg"
   xmlns:svg="http://www.w3.org/2000/svg">
  <defs
     id="defs1" />
  <sodipodi:namedview
     id="namedview1"
     pagecolor="#505050"
     bordercolor="#eeeeee"
     borderopacity="1"
     inkscape:showpageshadow="0"
     inkscape:pageopacity="0"
     inkscape:pagecheckerboard="0"
     inkscape:deskcolor="#505050"
     inkscape:zoom="0.30052038"
     inkscape:cx="-181.35209"
     inkscape:cy="387.66089"
     inkscape:window-width="1920"
     inkscape:window-height="1008"
     inkscape:window-x="0"
     inkscape:window-y="0"
     inkscape:window-maximized="1"
     inkscape:current-layer="g1" />
  <g
     inkscape:groupmode="layer"
     inkscape:label="Image"
     id="g1">
    <rect
       style="display:inline;fill:#ffffff;stroke:none;stroke-width:4.576;stroke-linecap:square"
       id="rect3"
       width="1200"
       height="599"
       x="0"
       y="1"
       ry="0" />
    <path
       style="display:inline;fill:#c8102e;fill-opacity:1;stroke:none;stroke-width:4.576;stroke-linecap:square;stroke-opacity:1"
       d="M 401.04043,399.97879 487.5,400.5 89.002,600 45.251,599.94467 1.5,599.88933 Z M 540,480 V 360 H 270 0 V 240 H 270 540 V 120 0 h 60 60 v 120 120 h 270 270 v 60 60 H 930 660 V 480 600 H 600 540 Z M 801.5,400.11066 888.99829,400 1200,555.497 V 577.2485 599 l -0.75,-0.0553 -0.75,-0.0553 z M 0,44.509369 V 1 C 133.11684,66.106369 265.81545,133.45393 398.5,199.88934 L 311.02726,200 Z M 713,199.5005 V 199.001 L 911.999,99.5005 1110.998,0 1154.749,0.05533265 1198.5,0.1106653 999,100 799.5,199.88933 756.25,199.94467 713,200 Z"
       id="path3"
       sodipodi:nodetypes="cccccccccccccccccccccccccccccccccccccccccccccccccccccc" />
    <path
       style="display:inline;fill:#012169;fill-opacity:1;stroke:none;stroke-width:7.61346;stroke-linecap:square"
       d="M 320.30974,91.52415 141.48528,2.1085909 319.98177,0.8649781 c 98.17308,-0.68398705 178.83776,-0.90234765 179.25487,-0.48524579 0.41709,0.417102 0.56468,41.21372969 0.32796,90.65917269 l -0.4304,89.900805 z"
       id="path4" />
    <path
       style="display:inline;fill:#012169;fill-opacity:1;stroke:none;stroke-width:7.61346;stroke-linecap:square"
       d="m 0.83189033,134.76623 c 0,-35.688092 0.56152597,-64.846278 1.24783547,-64.795966 0.6863095,0.05031 59.2721862,29.208498 130.1908342,64.795966 l 128.943,64.7045 -130.19083,0.0915 -130.19083967,0.0915 z"
       id="path5" />
    <path
       style="display:inline;fill:#012169;fill-opacity:1;stroke:none;stroke-width:7.61346;stroke-linecap:square"
       d="M 0.83189033,465.85859 V 400.97114 H 130.05219 c 71.07116,0 128.90833,0.25488 128.52706,0.56639 -1.23344,1.00775 -256.2304444,129.2085 -257.0014502,129.2085 -0.4102502,0 -0.74590947,-29.19935 -0.74590947,-64.88744 z"
       id="path6" />
    <path
       style="display:inline;fill:#012169;fill-opacity:1;stroke:none;stroke-width:7.61346;stroke-linecap:square"
       d="m 318.614,509.11688 c 98.37103,-49.31337 179.41794,-89.70195 180.10425,-89.75241 0.68631,-0.0505 1.24784,40.33813 1.24784,89.75241 v 89.84416 l -180.10426,-0.0917 -180.10425,-0.0917 z"
       id="path7" />
    <path
       style="display:inline;fill:#012169;fill-opacity:1;stroke:none;stroke-width:7.61346;stroke-linecap:square"
       d="m 701.28355,509.11534 v -89.84569 l 178.44047,89.19606 c 98.14227,49.05784 178.75248,89.48841 179.13368,89.8457 0.3813,0.3573 -79.91689,0.64963 -178.44043,0.64963 H 701.28355 Z"
       id="path8" />
    <path
       style="display:inline;fill:#012169;fill-opacity:1;stroke:none;stroke-width:7.61346;stroke-linecap:square"
       d="m 1068.9791,465.85859 -128.94303,-64.7045 129.35893,-0.0915 129.359,-0.0915 v 64.88745 c 0,35.68809 -0.1872,64.84628 -0.416,64.79596 -0.2287,-0.0503 -58.4403,-29.20849 -129.3589,-64.79596 z"
       id="path9" />
    <path
       style="display:inline;fill:#012169;fill-opacity:1;stroke:none;stroke-width:7.61346;stroke-linecap:square"
       d="m 1067.3153,134.76623 c 70.9186,-35.587468 129.5045,-64.745653 130.1908,-64.795966 0.6863,-0.05031 1.2479,29.107874 1.2479,64.795966 v 64.88745 l -130.1909,-0.0915 -130.19081,-0.0915 z"
       id="path10" />
    <path
       style="display:inline;fill:#012169;fill-opacity:1;stroke:none;stroke-width:7.61346;stroke-linecap:square"
       d="M 701.28355,90.633883 V 0 l 73.62229,0.23436197 C 815.3981,0.36326122 895.39374,0.92478719 952.67392,1.4821975 L 1056.8197,2.495671 879.05162,91.881718 701.28355,181.26777 Z"
       id="path11" />
  </g>
</svg>
